<svg width="16" height="16" viewBox="0 0 16 16" fill="none" xmlns="http://www.w3.org/2000/svg">
<g clip-path="url(#clip0_1336_2646)">
<path d="M15.4126 0.588091C15.1736 0.346176 14.8762 0.169994 14.5492 0.0765683C14.2222 -0.0168576 13.8767 -0.0243699 13.5459 0.0547573L2.87926 2.30142C2.26498 2.38567 1.68641 2.63974 1.20873 3.03503C0.73104 3.43032 0.373201 3.95113 0.175509 4.5388C-0.0221834 5.12647 -0.0518764 5.75767 0.0897735 6.3613C0.231423 6.96494 0.53879 7.51704 0.977259 7.95542L2.12259 9.10009C2.18458 9.16206 2.23374 9.23565 2.26726 9.31664C2.30078 9.39763 2.31799 9.48444 2.31793 9.57209V11.6841C2.3194 11.981 2.38776 12.2739 2.51793 12.5408L2.51259 12.5454L2.52993 12.5628C2.72527 12.9555 3.04431 13.2732 3.43793 13.4668L3.45526 13.4841L3.45993 13.4788C3.72683 13.6089 4.01964 13.6773 4.31659 13.6788H6.42859C6.60529 13.6786 6.77482 13.7486 6.89993 13.8734L8.04459 15.0181C8.35161 15.3285 8.71702 15.5751 9.11978 15.7436C9.52253 15.9122 9.95466 15.9993 10.3913 16.0001C10.7551 15.9996 11.1164 15.9402 11.4613 15.8241C12.0436 15.6329 12.5608 15.2828 12.9547 14.8132C13.3487 14.3437 13.6035 13.7734 13.6906 13.1668L15.9406 2.47676C16.0238 2.14318 16.0189 1.7937 15.9264 1.4626C15.8338 1.13149 15.6567 0.830137 15.4126 0.588091ZM3.06659 8.15876L1.92059 7.01409C1.65374 6.75366 1.46671 6.42252 1.38145 6.05953C1.29619 5.69654 1.31625 5.31675 1.43926 4.96476C1.55852 4.60364 1.779 4.28437 2.07446 4.04493C2.36992 3.80549 2.72793 3.65595 3.10593 3.61409L13.6666 1.39076L3.64993 11.4088V9.57209C3.65093 9.30965 3.5999 9.04961 3.49977 8.80702C3.39965 8.56442 3.25241 8.34409 3.06659 8.15876ZM12.3806 12.9388C12.3294 13.307 12.1766 13.6537 11.9393 13.9398C11.7021 14.2261 11.3897 14.4405 11.0373 14.559C10.685 14.6775 10.3066 14.6955 9.94455 14.6109C9.58254 14.5263 9.25127 14.3425 8.98793 14.0801L7.84126 12.9334C7.65617 12.7473 7.43602 12.5998 7.19354 12.4993C6.95106 12.3988 6.69106 12.3474 6.42859 12.3481H4.59193L14.6099 2.33342L12.3806 12.9388Z" fill="white"/>
</g>
<defs>
<clipPath id="clip0_1336_2646">
<rect width="16" height="16" fill="white"/>
</clipPath>
</defs>
</svg>
